<svg width="137" height="137" viewBox="0 0 137 137" fill="none" xmlns="http://www.w3.org/2000/svg">
<path d="M68.5634 136.873C106.36 136.873 137 106.233 137 68.4365C137 30.6401 106.36 0 68.5634 0C30.767 0 0.126953 30.6401 0.126953 68.4365C0.126953 106.233 30.767 136.873 68.5634 136.873Z" fill="#121212"/>
<path d="M65.7826 85.6409V36.7113C65.7958 36.3237 65.7308 35.9375 65.5915 35.5756C65.4523 35.2137 65.2417 34.8835 64.9721 34.6047C64.7026 34.3259 64.3798 34.1042 64.0228 33.9527C63.6658 33.8013 63.282 33.7233 62.8942 33.7233C62.5064 33.7233 62.1226 33.8013 61.7656 33.9527C61.4086 34.1042 61.0858 34.3259 60.8162 34.6047C60.5467 34.8835 60.3361 35.2137 60.1968 35.5756C60.0576 35.9375 59.9926 36.3237 60.0057 36.7113V85.6409C60.0039 85.6474 60.0039 85.6543 60.0057 85.6608C60.0057 89.3692 58.5326 92.9258 55.9103 95.548C53.288 98.1703 49.7315 99.6435 46.023 99.6435C42.3146 99.6435 38.758 98.1703 36.1357 95.548C33.5135 92.9258 32.0403 89.3692 32.0403 85.6608V36.7113C32.0534 36.3237 31.9884 35.9375 31.8492 35.5756C31.71 35.2137 31.4993 34.8835 31.2298 34.6047C30.9603 34.3259 30.6374 34.1042 30.2804 33.9527C29.9234 33.8013 29.5396 33.7233 29.1518 33.7233C28.7641 33.7233 28.3803 33.8013 28.0233 33.9527C27.6663 34.1042 27.3434 34.3259 27.0739 34.6047C26.8044 34.8835 26.5937 35.2137 26.4545 35.5756C26.3152 35.9375 26.2502 36.3237 26.2634 36.7113V85.6409C26.2634 90.8806 28.3448 95.9057 32.0499 99.6107C35.7549 103.316 40.78 105.397 46.0197 105.397C51.2594 105.397 56.2845 103.316 59.9895 99.6107C63.6945 95.9057 65.776 90.8806 65.776 85.6409H65.7826Z" fill="#F2F2F2"/>
<path d="M91.1001 31.4719C85.8622 31.4781 80.8407 33.5615 77.137 37.2652C73.4333 40.9689 71.3499 45.9904 71.3438 51.2282V100.178C71.3691 100.927 71.6846 101.637 72.2235 102.158C72.7624 102.679 73.4827 102.97 74.2322 102.97C74.9818 102.97 75.702 102.679 76.2409 102.158C76.7798 101.637 77.0953 100.927 77.1207 100.178V51.2282C77.1222 51.2217 77.1222 51.2149 77.1207 51.2083C77.1233 47.4999 78.599 43.9444 81.2231 41.324C83.8473 38.7036 87.4049 37.2329 91.1133 37.2356C94.8218 37.2382 98.3773 38.7139 100.998 41.338C103.618 43.9622 105.089 47.5198 105.086 51.2282V100.178C105.086 100.943 105.39 101.678 105.932 102.219C106.473 102.76 107.207 103.064 107.973 103.064C108.739 103.064 109.473 102.76 110.014 102.219C110.556 101.678 110.86 100.943 110.86 100.178V51.2282C110.854 45.9898 108.77 40.9678 105.065 37.264C101.361 33.5602 96.3384 31.4772 91.1001 31.4719Z" fill="#F2F2F2"/>
</svg>
